<svg id="svg" version="1.1" xmlns="http://www.w3.org/2000/svg" xmlns:xlink="http://www.w3.org/1999/xlink" width="400" height="455.55555555555554" viewBox="0, 0, 400,455.55555555555554"><g id="svgg"><path id="path0" d="M2.623 0.635 C 1.670 1.587,-0.000 3.835,-0.000 4.165 C -0.000 4.324,0.585 4.039,1.300 3.532 C 2.869 2.418,4.800 0.611,4.800 0.257 C 4.800 -0.255,3.242 0.016,2.623 0.635 M157.400 37.337 C 119.883 74.963,112.000 82.956,112.000 83.372 C 112.000 83.823,112.344 83.567,114.654 81.400 C 115.944 80.190,117.134 79.200,117.299 79.200 C 117.465 79.200,117.600 79.015,117.600 78.789 C 117.600 78.342,121.013 74.800,121.445 74.800 C 121.591 74.800,122.270 74.131,122.955 73.312 C 123.640 72.494,125.074 71.009,126.142 70.012 C 127.210 69.016,128.920 67.320,129.942 66.245 C 130.964 65.169,132.310 63.819,132.933 63.245 C 135.182 61.172,136.629 59.714,138.263 57.873 C 139.178 56.843,140.020 56.000,140.134 56.000 C 140.248 56.000,142.690 53.615,145.560 50.700 C 148.430 47.785,150.918 45.261,151.089 45.091 C 151.671 44.513,188.198 7.995,188.600 7.590 C 188.820 7.368,189.990 6.235,191.200 5.072 C 195.372 1.060,196.250 -0.002,195.378 0.015 C 194.889 0.024,180.790 13.879,157.400 37.337 M140.986 5.222 C 140.827 5.479,140.946 5.851,141.249 6.048 C 142.083 6.591,143.800 6.290,143.800 5.600 C 143.800 4.862,141.407 4.541,140.986 5.222 M138.213 6.141 C 137.519 6.649,137.542 6.699,138.595 6.963 C 139.786 7.262,140.669 6.758,140.222 6.035 C 139.859 5.448,139.107 5.487,138.213 6.141 M154.107 58.115 C 119.751 92.464,51.338 160.667,49.144 162.756 C 49.003 162.890,43.137 168.805,36.108 175.900 C 29.079 182.995,23.131 188.800,22.891 188.800 C 22.651 188.800,22.348 189.134,22.218 189.542 C 22.089 189.950,20.700 191.435,19.132 192.842 C 17.564 194.249,16.127 195.580,15.938 195.800 C 15.749 196.020,14.966 196.910,14.198 197.778 C 13.429 198.646,12.800 199.544,12.800 199.774 C 12.800 200.114,18.545 205.854,36.330 223.281 C 36.960 223.898,38.344 225.301,44.200 231.253 C 46.620 233.713,49.187 236.282,49.904 236.963 C 50.621 237.643,53.141 240.160,55.504 242.555 C 57.867 244.950,60.306 247.380,60.924 247.955 C 61.543 248.530,64.063 251.051,66.524 253.558 C 68.986 256.066,71.502 258.586,72.115 259.158 C 72.729 259.731,101.688 288.588,136.470 323.285 C 191.932 378.612,199.803 386.320,200.473 385.961 C 200.893 385.736,228.903 357.920,262.718 324.146 C 296.533 290.373,325.370 261.608,326.800 260.224 C 328.230 258.841,331.230 255.839,333.467 253.554 C 335.704 251.270,338.134 248.842,338.867 248.160 C 339.600 247.477,342.117 244.957,344.461 242.560 C 346.805 240.162,349.325 237.633,350.061 236.939 C 350.797 236.246,353.324 233.726,355.676 231.339 C 358.028 228.953,360.548 226.444,361.276 225.765 C 362.004 225.085,362.960 224.145,363.400 223.676 C 363.840 223.207,364.830 222.218,365.600 221.479 C 366.370 220.740,367.937 219.160,369.083 217.967 C 370.228 216.775,371.758 215.239,372.483 214.553 C 374.537 212.608,376.045 211.113,377.376 209.702 C 378.049 208.989,379.483 207.549,380.561 206.502 C 383.119 204.022,384.895 202.232,386.249 200.771 L 387.345 199.588 385.973 198.163 C 385.218 197.378,363.580 175.736,337.888 150.068 C 312.197 124.401,272.237 84.449,249.088 61.287 C 225.940 38.125,205.560 17.742,203.800 15.992 C 202.040 14.241,200.330 12.814,200.000 12.820 C 199.670 12.826,179.018 33.209,154.107 58.115 M123.887 22.261 C 122.154 23.945,121.678 24.861,122.537 24.859 C 123.007 24.858,126.800 21.232,126.800 20.784 C 126.800 19.939,125.703 20.494,123.887 22.261 M101.660 33.580 C 101.748 33.844,101.951 34.047,102.110 34.030 C 102.588 33.981,102.496 33.432,101.980 33.260 C 101.716 33.172,101.572 33.316,101.660 33.580 M100.800 35.400 C 100.800 35.767,100.994 36.002,101.230 35.923 C 101.466 35.845,101.660 35.609,101.660 35.400 C 101.660 35.191,101.466 34.956,101.230 34.877 C 100.994 34.798,100.800 35.033,100.800 35.400 M98.278 41.056 C 97.958 41.375,98.319 42.000,98.824 42.000 C 99.031 42.000,99.200 41.730,99.200 41.400 C 99.200 40.781,98.728 40.605,98.278 41.056 M97.400 42.800 C 97.074 43.328,97.552 44.077,98.028 43.783 C 98.513 43.483,98.510 42.400,98.024 42.400 C 97.817 42.400,97.536 42.580,97.400 42.800 M96.477 44.830 C 96.556 45.067,96.791 45.260,97.000 45.260 C 97.209 45.260,97.445 45.067,97.523 44.830 C 97.602 44.594,97.367 44.400,97.000 44.400 C 96.633 44.400,96.398 44.594,96.477 44.830 M95.677 46.430 C 95.756 46.667,95.991 46.860,96.200 46.860 C 96.409 46.860,96.644 46.667,96.723 46.430 C 96.802 46.194,96.567 46.000,96.200 46.000 C 95.833 46.000,95.598 46.194,95.677 46.430 M94.800 48.200 C 94.800 48.567,94.994 48.802,95.230 48.723 C 95.466 48.645,95.660 48.409,95.660 48.200 C 95.660 47.991,95.466 47.756,95.230 47.677 C 94.994 47.598,94.800 47.833,94.800 48.200 M62.583 50.651 C 61.932 51.211,61.130 51.822,60.800 52.010 C 60.327 52.278,60.304 52.455,60.689 52.844 C 61.075 53.234,61.353 53.114,62.019 52.266 C 62.482 51.677,63.139 50.918,63.478 50.579 C 64.535 49.522,63.828 49.579,62.583 50.651 M56.400 56.176 C 56.400 56.493,56.580 56.864,56.800 57.000 C 57.020 57.136,57.200 56.877,57.200 56.424 C 57.200 55.971,57.020 55.600,56.800 55.600 C 56.580 55.600,56.400 55.859,56.400 56.176 M202.929 59.778 C 203.722 60.316,230.792 87.152,263.085 119.413 C 295.378 151.675,322.475 178.664,323.300 179.390 C 324.125 180.115,324.800 180.909,324.800 181.154 C 324.800 181.399,324.984 181.600,325.208 181.600 C 325.616 181.600,331.600 187.305,331.600 187.694 C 331.600 187.867,334.491 190.752,338.642 194.721 C 343.064 198.949,342.384 200.721,332.718 210.147 C 325.543 217.144,259.429 283.089,238.325 304.299 C 235.533 307.105,233.103 309.540,232.925 309.710 C 230.424 312.102,207.402 335.135,207.064 335.584 C 204.099 339.521,199.548 341.026,196.778 338.985 C 193.505 336.574,59.577 202.582,59.248 201.389 C 58.787 199.721,59.146 197.633,60.138 196.200 C 60.722 195.358,94.812 161.153,101.306 154.895 C 101.474 154.733,102.950 153.250,104.586 151.600 C 106.222 149.950,108.154 148.028,108.880 147.329 C 109.606 146.630,111.128 145.100,112.263 143.929 C 113.398 142.758,123.388 132.761,134.463 121.714 C 145.538 110.667,159.396 96.807,165.258 90.914 C 171.119 85.021,178.229 77.922,181.058 75.137 C 183.886 72.352,188.180 68.053,190.600 65.583 C 197.345 58.697,199.702 57.588,202.929 59.778 M110.262 85.131 C 109.439 86.041,109.414 86.446,110.200 86.145 C 110.530 86.018,110.800 85.679,110.800 85.391 C 110.800 85.102,111.025 84.776,111.300 84.665 C 111.589 84.548,111.615 84.450,111.362 84.432 C 111.121 84.414,110.626 84.729,110.262 85.131 M107.538 87.538 C 106.803 88.196,106.321 88.854,106.468 89.001 C 106.615 89.148,107.318 88.712,108.031 88.031 C 109.719 86.417,109.282 85.980,107.538 87.538 M4.256 99.878 C 3.805 100.328,3.981 100.800,4.600 100.800 C 4.930 100.800,5.200 100.631,5.200 100.424 C 5.200 99.919,4.575 99.558,4.256 99.878 M1.500 101.535 C -0.001 102.189,-0.616 103.600,0.600 103.600 C 0.930 103.600,1.200 103.347,1.200 103.037 C 1.200 102.686,1.479 102.548,1.945 102.670 C 2.473 102.808,2.759 102.598,2.929 101.950 C 3.239 100.765,3.255 100.770,1.500 101.535 M322.000 117.195 C 322.000 118.095,323.341 119.181,323.889 118.726 C 324.328 118.362,324.281 118.148,323.629 117.541 C 322.761 116.733,322.000 116.571,322.000 117.195 M190.200 140.254 C 185.140 145.429,180.656 149.965,180.234 150.332 C 178.805 151.579,144.206 186.197,143.184 187.402 C 142.625 188.061,141.725 188.975,141.184 189.433 C 140.643 189.891,139.726 190.791,139.146 191.433 C 138.566 192.075,137.036 193.613,135.746 194.851 C 130.663 199.727,130.663 199.330,135.758 204.370 C 137.541 206.135,152.666 221.252,169.370 237.966 C 193.204 261.814,199.877 268.280,200.376 268.013 C 201.315 267.510,267.371 201.521,268.197 200.261 L 268.901 199.186 246.852 177.293 C 234.724 165.252,224.397 155.017,223.901 154.549 C 223.405 154.081,222.552 153.136,222.004 152.449 C 221.457 151.762,220.877 151.200,220.716 151.200 C 220.554 151.200,219.157 149.895,217.611 148.300 C 204.429 134.701,200.498 130.803,199.990 130.822 C 199.665 130.834,195.260 135.078,190.200 140.254 M28.000 164.400 C 28.000 165.002,28.209 165.218,28.700 165.124 C 29.085 165.050,29.400 164.724,29.400 164.400 C 29.400 164.076,29.085 163.750,28.700 163.676 C 28.209 163.582,28.000 163.798,28.000 164.400 M206.372 180.747 C 208.529 182.866,210.678 184.865,211.147 185.188 C 211.616 185.512,212.000 185.904,212.000 186.060 C 212.000 186.349,217.706 192.118,220.389 194.543 C 224.959 198.672,224.599 200.245,217.441 207.421 C 214.778 210.090,212.119 212.797,211.532 213.437 C 200.428 225.531,200.152 225.517,187.294 212.230 C 186.032 210.926,183.361 208.226,181.358 206.230 C 174.219 199.116,174.112 199.342,193.271 180.957 C 199.426 175.051,200.555 175.032,206.372 180.747 M1.859 189.996 C 1.136 190.726,1.242 191.600,2.052 191.600 C 2.669 191.600,3.600 190.535,3.600 189.829 C 3.600 188.992,2.775 189.071,1.859 189.996 M399.300 192.665 C 398.593 192.950,398.677 194.400,399.400 194.400 C 399.773 194.400,400.000 194.022,400.000 193.400 C 400.000 192.850,399.955 192.414,399.900 192.432 C 399.845 192.449,399.575 192.554,399.300 192.665 M382.052 220.781 C 379.384 223.425,377.200 225.862,377.200 226.195 C 377.200 227.481,377.357 227.337,385.900 218.192 C 386.175 217.898,386.400 217.479,386.400 217.262 C 386.400 217.045,386.625 216.786,386.900 216.688 C 387.175 216.590,387.289 216.388,387.152 216.241 C 387.016 216.093,384.721 218.136,382.052 220.781 M23.660 283.180 C 23.748 283.444,23.951 283.647,24.110 283.630 C 24.588 283.581,24.496 283.032,23.980 282.860 C 23.716 282.772,23.572 282.916,23.660 283.180 M26.945 286.600 C 26.591 287.521,27.117 288.475,27.895 288.325 C 28.297 288.247,29.075 288.741,29.736 289.494 C 30.366 290.211,31.043 290.697,31.242 290.574 C 31.624 290.338,28.086 286.000,27.511 286.000 C 27.326 286.000,27.071 286.270,26.945 286.600 M50.800 310.381 C 50.800 311.191,54.891 314.869,55.318 314.442 C 55.610 314.150,55.128 313.413,53.726 312.011 C 51.817 310.103,50.800 309.536,50.800 310.381 M63.202 322.459 C 63.204 323.116,73.557 333.377,73.886 333.048 C 74.014 332.920,73.057 331.756,71.759 330.462 C 70.462 329.168,68.590 327.229,67.600 326.155 C 64.998 323.330,63.200 321.818,63.202 322.459 " stroke="none" fill="#fbfbfb" fill-rule="evenodd"></path><path id="path1" d="M192.965 3.300 C 191.194 5.115,189.437 6.870,189.060 7.200 C 188.684 7.530,180.056 16.121,169.888 26.291 C 159.719 36.462,151.260 44.922,151.089 45.091 C 150.918 45.261,148.430 47.785,145.560 50.700 C 142.690 53.615,140.248 56.000,140.134 56.000 C 140.020 56.000,139.178 56.843,138.263 57.873 C 136.629 59.714,135.182 61.172,132.933 63.245 C 132.310 63.819,130.964 65.169,129.942 66.245 C 128.920 67.320,127.210 69.026,126.142 70.037 C 125.074 71.047,123.660 72.528,123.000 73.328 C 122.340 74.128,121.660 74.787,121.489 74.791 C 121.130 74.801,117.600 78.265,117.600 78.608 C 117.600 78.918,115.700 80.800,115.387 80.800 C 115.250 80.800,114.446 81.520,113.600 82.400 C 112.754 83.280,111.734 84.003,111.331 84.006 C 110.713 84.011,110.693 84.072,111.200 84.400 C 111.600 84.658,111.633 84.790,111.300 84.794 C 111.025 84.797,110.800 85.027,110.800 85.305 C 110.800 85.583,110.318 86.168,109.728 86.605 C 109.138 87.042,108.246 87.805,107.746 88.300 C 107.246 88.795,106.558 89.200,106.218 89.200 C 105.878 89.200,105.621 89.335,105.647 89.500 C 105.768 90.263,105.502 90.751,104.173 92.202 C 103.024 93.456,102.674 93.647,102.379 93.180 C 102.099 92.737,102.009 92.837,102.000 93.600 C 101.990 94.393,101.908 94.476,101.600 94.000 C 101.286 93.515,101.211 93.572,101.206 94.300 C 101.202 94.846,100.955 95.200,100.576 95.200 C 100.233 95.200,100.051 95.360,100.172 95.555 C 100.292 95.750,100.033 96.003,99.596 96.117 C 99.158 96.231,98.800 96.623,98.800 96.986 C 98.800 97.350,98.620 97.536,98.400 97.400 C 98.180 97.264,98.000 97.534,98.000 98.000 C 98.000 98.466,97.820 98.736,97.600 98.600 C 97.380 98.464,97.200 98.633,97.200 98.976 C 97.200 99.319,96.880 99.600,96.489 99.600 C 95.815 99.600,94.414 100.870,94.388 101.505 C 94.381 101.667,93.830 102.250,93.163 102.800 C 91.101 104.500,90.000 105.620,90.000 106.018 C 90.000 106.228,89.799 106.400,89.553 106.400 C 88.898 106.400,86.000 109.499,86.000 110.200 C 86.000 110.533,85.644 110.800,85.200 110.800 C 84.760 110.800,84.400 110.948,84.400 111.128 C 84.400 111.584,80.896 115.200,80.455 115.200 C 80.258 115.200,79.873 115.740,79.600 116.400 C 79.327 117.060,78.862 117.600,78.568 117.600 C 77.901 117.600,74.800 120.511,74.800 121.138 C 74.800 121.392,74.625 121.600,74.411 121.600 C 73.960 121.600,70.400 125.076,70.400 125.516 C 70.400 125.678,69.995 125.988,69.500 126.205 C 69.005 126.422,68.422 127.005,68.205 127.500 C 67.988 127.995,67.681 128.400,67.524 128.400 C 67.112 128.400,63.600 132.020,63.600 132.445 C 63.600 132.640,63.399 132.800,63.153 132.800 C 62.498 132.800,59.600 135.899,59.600 136.600 C 59.600 136.930,59.252 137.200,58.827 137.200 C 58.402 137.200,57.939 137.563,57.798 138.006 C 57.657 138.449,57.375 138.708,57.171 138.582 C 56.967 138.456,56.800 138.633,56.800 138.976 C 56.800 139.319,56.519 139.600,56.176 139.600 C 55.833 139.600,55.664 139.780,55.800 140.000 C 55.936 140.220,55.863 140.400,55.637 140.400 C 55.411 140.400,54.610 141.049,53.857 141.843 C 52.034 143.764,52.052 143.746,50.100 145.428 C 49.165 146.234,48.400 147.142,48.400 147.447 C 48.400 147.751,48.239 148.000,48.042 148.000 C 47.478 148.000,45.200 150.266,45.481 150.547 C 45.620 150.686,45.420 150.800,45.038 150.800 C 44.316 150.800,43.200 151.696,43.200 152.275 C 43.200 152.458,42.840 152.832,42.400 153.107 C 41.960 153.382,41.600 153.965,41.600 154.403 C 41.600 154.862,41.332 155.200,40.969 155.200 C 40.237 155.200,37.200 158.051,37.200 158.738 C 37.200 158.992,36.958 159.200,36.662 159.200 C 35.929 159.200,34.800 160.507,34.800 161.355 C 34.800 161.736,34.654 161.957,34.475 161.846 C 34.296 161.736,33.649 161.974,33.036 162.376 C 32.264 162.883,32.087 163.173,32.461 163.322 C 32.819 163.465,32.755 163.547,32.271 163.568 C 31.365 163.608,30.400 164.537,30.400 165.371 C 30.400 165.717,30.202 166.000,29.960 166.000 C 29.718 166.000,28.890 166.630,28.120 167.400 C 27.350 168.170,26.558 168.800,26.360 168.800 C 26.162 168.800,26.000 169.160,26.000 169.600 C 26.000 170.061,25.733 170.400,25.371 170.400 C 24.626 170.400,23.531 171.397,23.886 171.752 C 24.022 171.889,23.898 172.000,23.611 172.000 C 22.911 172.000,22.030 173.209,22.007 174.200 C 21.991 174.866,21.922 174.900,21.594 174.400 C 21.267 173.902,21.157 173.959,20.944 174.734 C 20.754 175.432,20.604 175.533,20.351 175.134 C 20.094 174.729,20.011 174.774,20.006 175.324 C 20.003 175.722,19.820 175.936,19.600 175.800 C 19.380 175.664,19.200 175.923,19.200 176.376 C 19.200 176.962,18.940 177.202,18.300 177.206 C 17.572 177.211,17.515 177.286,18.000 177.600 C 18.485 177.914,18.428 177.989,17.700 177.994 C 17.069 177.998,16.800 178.239,16.800 178.800 C 16.800 179.240,16.620 179.600,16.400 179.600 C 16.180 179.600,16.000 179.864,16.000 180.187 C 16.000 180.545,15.765 180.685,15.400 180.545 C 15.020 180.399,14.800 180.550,14.800 180.957 C 14.800 181.333,14.468 181.600,14.000 181.600 C 13.439 181.600,13.198 181.869,13.194 182.500 C 13.190 183.047,13.071 183.217,12.890 182.933 C 12.692 182.620,12.197 182.934,11.397 183.881 C 10.169 185.333,8.460 187.078,6.634 188.742 C 6.065 189.260,5.600 189.965,5.600 190.309 C 5.600 190.652,5.489 190.822,5.352 190.686 C 5.056 190.390,4.000 191.373,4.000 191.944 C 4.000 192.165,3.666 192.452,3.257 192.582 C 2.849 192.712,2.321 193.219,2.084 193.709 C 1.848 194.199,1.642 194.347,1.627 194.039 C 1.609 193.666,1.332 193.787,0.800 194.400 C 0.111 195.194,-0.000 195.897,0.000 199.460 L 0.000 203.597 11.848 215.445 C 19.795 223.392,23.534 227.394,23.203 227.598 C 22.821 227.834,22.833 227.952,23.255 228.120 C 23.641 228.274,23.600 228.346,23.114 228.368 C 22.355 228.403,20.075 230.467,19.907 231.270 C 19.763 231.960,19.146 232.590,18.300 232.910 C 17.915 233.056,17.600 233.361,17.600 233.587 C 17.600 234.135,12.921 238.800,12.371 238.800 C 11.933 238.800,10.800 239.775,10.800 240.152 C 10.800 240.267,10.170 240.973,9.400 241.721 C 8.630 242.469,8.000 243.288,8.000 243.540 C 8.000 243.793,7.670 244.000,7.268 244.000 C 6.865 244.000,6.280 244.494,5.968 245.097 C 5.386 246.221,3.025 248.800,2.577 248.800 C 2.440 248.800,1.804 249.294,1.164 249.899 C -0.561 251.527,-0.607 260.000,1.109 260.000 C 1.453 260.000,1.622 260.111,1.486 260.248 C 1.209 260.524,2.156 261.600,2.676 261.600 C 2.860 261.600,3.368 262.088,3.805 262.685 C 4.242 263.282,5.467 264.587,6.527 265.585 C 7.587 266.583,8.937 267.914,9.527 268.543 C 10.117 269.172,11.468 270.522,12.530 271.543 C 13.591 272.564,15.121 274.103,15.930 274.961 C 18.770 277.977,21.284 280.400,21.573 280.400 C 21.733 280.400,22.095 280.830,22.376 281.356 C 22.658 281.882,23.341 282.518,23.896 282.771 C 24.450 283.023,24.803 283.331,24.679 283.454 C 24.346 283.788,26.930 286.300,27.425 286.123 C 27.819 285.983,31.011 289.413,31.133 290.107 C 31.202 290.498,33.894 293.200,34.215 293.200 C 34.527 293.200,35.600 294.270,35.600 294.580 C 35.600 294.936,39.934 299.200,40.296 299.200 C 40.469 299.200,40.968 299.684,41.405 300.277 C 42.166 301.307,43.762 302.926,47.075 306.028 C 47.914 306.813,48.960 307.914,49.400 308.474 C 49.840 309.034,50.740 309.771,51.400 310.112 C 52.791 310.830,55.085 313.129,55.272 313.991 C 55.389 314.529,56.237 315.428,59.475 318.449 C 60.094 319.026,61.140 320.128,61.800 320.899 C 62.460 321.671,63.150 322.307,63.333 322.314 C 64.068 322.343,74.000 332.450,74.000 333.169 C 74.000 333.406,74.197 333.555,74.437 333.500 C 74.678 333.445,75.083 333.752,75.337 334.183 C 76.030 335.355,76.689 336.000,77.195 336.000 C 77.444 336.000,77.536 336.180,77.400 336.400 C 77.264 336.620,77.352 336.800,77.595 336.800 C 78.063 336.800,80.000 338.587,80.000 339.018 C 80.000 339.159,80.847 340.022,81.882 340.937 C 82.917 341.851,84.402 343.286,85.182 344.124 C 87.577 346.697,89.021 348.111,91.592 350.400 C 92.951 351.610,94.358 353.095,94.718 353.700 C 95.078 354.305,95.559 354.806,95.786 354.814 C 96.014 354.822,96.920 355.646,97.800 356.646 C 98.680 357.645,100.107 359.124,100.971 359.932 C 103.832 362.607,106.400 365.277,106.400 365.578 C 106.400 365.741,107.030 366.213,107.800 366.628 C 108.570 367.043,109.200 367.532,109.200 367.715 C 109.200 367.898,109.408 367.919,109.662 367.762 C 109.932 367.595,110.016 367.651,109.863 367.898 C 109.619 368.293,112.072 371.375,113.745 372.776 C 115.670 374.389,124.400 383.266,124.400 383.611 C 124.400 383.825,124.559 384.000,124.752 384.000 C 125.242 384.000,132.800 391.517,132.800 392.004 C 132.800 392.222,132.985 392.400,133.211 392.400 C 133.738 392.400,137.999 396.414,140.000 398.795 C 140.550 399.450,141.238 399.989,141.529 399.993 C 142.215 400.002,143.200 400.994,143.200 401.676 C 143.200 401.969,143.759 402.657,144.442 403.204 C 145.125 403.752,145.922 404.425,146.213 404.700 C 146.505 404.975,146.936 405.200,147.171 405.200 C 147.407 405.200,147.600 405.487,147.600 405.837 C 147.600 406.188,147.960 406.569,148.400 406.684 C 148.840 406.799,149.200 407.142,149.200 407.447 C 149.200 407.751,149.380 408.000,149.600 408.000 C 149.820 408.000,150.000 408.194,150.000 408.431 C 150.000 409.006,152.217 411.200,152.798 411.200 C 153.385 411.200,154.050 411.909,154.768 413.300 C 155.080 413.905,155.447 414.400,155.584 414.400 C 155.721 414.400,156.501 415.030,157.318 415.800 C 158.134 416.570,158.897 417.200,159.014 417.200 C 159.348 417.200,162.000 419.938,162.000 420.282 C 162.000 420.671,165.656 424.000,166.083 424.000 C 166.257 424.000,166.400 424.276,166.400 424.613 C 166.400 424.949,166.715 425.344,167.100 425.490 C 167.865 425.780,168.800 426.602,168.800 426.985 C 168.800 427.291,171.495 430.000,171.800 430.000 C 172.106 430.000,174.800 432.710,174.800 433.018 C 174.800 433.291,177.157 435.559,179.352 437.400 C 180.139 438.060,180.787 438.749,180.791 438.931 C 180.800 439.253,181.981 440.427,185.764 443.872 C 186.774 444.792,187.600 445.750,187.600 446.003 C 187.600 446.599,189.801 448.800,190.398 448.800 C 191.061 448.800,192.000 449.838,192.000 450.571 C 192.000 450.933,192.339 451.200,192.800 451.200 C 193.240 451.200,193.600 451.386,193.600 451.613 C 193.600 454.980,202.031 456.395,204.913 453.513 C 205.731 452.696,206.400 451.925,206.400 451.800 C 206.400 451.489,209.112 448.800,209.427 448.800 C 209.766 448.800,212.400 446.152,212.400 445.811 C 212.400 445.405,213.313 444.588,214.100 444.290 C 214.485 444.144,214.800 443.749,214.800 443.413 C 214.800 443.076,214.985 442.800,215.211 442.800 C 215.632 442.800,219.200 439.399,219.200 438.997 C 219.200 438.704,221.906 436.000,222.200 436.000 C 222.496 436.000,225.200 433.296,225.200 433.000 C 225.200 432.704,227.904 430.000,228.200 430.000 C 228.496 430.000,231.200 427.296,231.200 427.000 C 231.200 426.706,233.904 424.000,234.197 424.000 C 234.489 424.000,238.000 420.489,238.000 420.197 C 238.000 419.904,240.706 417.200,241.000 417.200 C 241.296 417.200,244.000 414.496,244.000 414.200 C 244.000 413.906,246.704 411.200,246.997 411.200 C 247.292 411.200,250.800 407.688,250.800 407.392 C 250.800 407.094,252.694 405.200,252.992 405.200 C 253.291 405.200,256.800 401.691,256.800 401.392 C 256.800 401.094,258.694 399.200,258.992 399.200 C 259.288 399.200,262.800 395.692,262.800 395.397 C 262.800 395.105,265.505 392.400,265.797 392.400 C 266.092 392.400,269.600 388.888,269.600 388.592 C 269.600 388.294,271.494 386.400,271.792 386.400 C 272.091 386.400,275.600 382.891,275.600 382.592 C 275.600 382.296,277.494 380.400,277.791 380.400 C 278.087 380.400,282.400 376.087,282.400 375.791 C 282.400 375.499,284.293 373.600,284.583 373.600 C 284.988 373.600,290.000 368.432,290.000 368.014 C 290.000 367.786,290.175 367.600,290.389 367.600 C 290.940 367.600,294.400 364.338,294.400 363.819 C 294.400 363.583,294.882 363.032,295.471 362.595 C 297.020 361.445,301.200 357.302,301.200 356.917 C 301.200 356.737,301.688 356.232,302.283 355.795 C 302.879 355.358,304.394 353.965,305.649 352.700 C 306.904 351.435,308.127 350.400,308.366 350.400 C 308.605 350.400,308.800 350.236,308.800 350.036 C 308.800 349.836,311.149 347.361,314.020 344.536 C 328.211 330.574,353.600 305.050,353.600 304.745 C 353.600 304.555,353.799 304.400,354.042 304.400 C 354.399 304.400,366.826 292.104,374.701 283.959 C 375.636 282.992,376.770 281.840,377.220 281.400 C 379.722 278.954,384.000 274.255,384.000 273.952 C 384.000 273.758,384.206 273.600,384.457 273.600 C 384.708 273.600,385.391 273.105,385.974 272.500 C 386.557 271.895,387.522 271.145,388.117 270.832 C 388.713 270.520,389.200 270.109,389.200 269.919 C 389.200 269.524,391.843 266.800,392.226 266.800 C 392.365 266.800,392.956 266.279,393.540 265.642 C 395.984 262.971,397.583 261.336,398.755 260.306 C 399.986 259.226,400.000 259.168,400.000 255.383 L 400.000 251.553 389.600 241.177 C 383.880 235.471,379.200 230.621,379.200 230.401 C 379.200 230.180,379.041 230.000,378.847 230.000 C 378.652 230.000,378.399 229.640,378.284 229.200 C 378.151 228.690,377.735 228.398,377.137 228.394 C 376.385 228.389,376.319 228.311,376.800 228.000 C 377.278 227.691,377.196 227.605,376.400 227.579 L 375.400 227.546 376.300 227.112 C 376.795 226.873,377.200 226.435,377.200 226.139 C 377.200 225.555,386.196 216.430,386.913 216.287 C 387.785 216.113,390.666 213.003,390.230 212.706 C 389.970 212.529,390.077 212.410,390.500 212.406 C 390.885 212.403,391.200 212.190,391.200 211.933 C 391.200 211.677,391.309 211.576,391.442 211.709 C 391.795 212.062,393.600 210.146,393.600 209.418 C 393.600 209.078,393.881 208.800,394.224 208.800 C 394.567 208.800,394.736 208.620,394.600 208.400 C 394.464 208.180,394.643 208.000,394.998 208.000 C 395.353 208.000,396.219 207.439,396.922 206.753 C 397.625 206.067,397.947 205.645,397.638 205.815 C 397.265 206.020,397.172 205.969,397.362 205.662 C 397.519 205.408,397.840 205.200,398.077 205.200 C 399.441 205.200,400.000 203.503,400.000 199.359 L 400.000 195.241 398.700 194.019 C 397.985 193.348,397.085 192.696,396.700 192.572 C 396.315 192.448,396.000 192.122,396.000 191.849 C 396.000 191.576,395.182 190.553,394.183 189.576 C 393.184 188.599,391.654 187.103,390.783 186.252 C 389.912 185.400,389.200 184.545,389.200 184.352 C 389.200 184.158,388.900 184.000,388.533 184.000 C 388.167 184.000,387.983 183.883,388.126 183.740 C 388.448 183.419,386.386 181.601,385.700 181.600 C 385.425 181.600,385.200 181.445,385.200 181.256 C 385.200 180.713,381.797 177.200,381.272 177.200 C 381.012 177.200,380.800 176.947,380.800 176.638 C 380.800 175.986,375.424 170.663,374.572 170.471 C 374.257 170.400,374.000 170.141,374.000 169.895 C 374.000 169.419,370.404 166.005,369.900 166.002 C 369.735 166.001,369.600 165.719,369.600 165.376 C 369.600 165.033,369.465 164.820,369.300 164.902 C 369.021 165.041,366.922 163.120,367.113 162.900 C 367.494 162.462,367.025 162.000,366.200 162.000 C 365.650 162.000,365.200 161.838,365.200 161.641 C 365.200 161.125,359.338 155.200,358.827 155.200 C 358.592 155.200,358.400 155.002,358.400 154.760 C 358.400 154.519,357.894 153.844,357.275 153.260 C 356.657 152.677,356.033 151.885,355.888 151.500 C 355.743 151.115,355.389 150.800,355.101 150.800 C 354.813 150.800,354.317 150.440,354.000 150.000 C 353.683 149.560,353.193 149.200,352.912 149.200 C 352.630 149.200,352.400 149.017,352.400 148.793 C 352.400 148.261,347.339 143.200,346.807 143.200 C 346.583 143.200,346.400 143.041,346.400 142.846 C 346.400 142.439,341.392 137.200,341.002 137.200 C 340.678 137.200,339.600 136.140,339.600 135.821 C 339.600 135.409,334.433 130.400,334.007 130.400 C 333.783 130.400,333.600 130.217,333.600 129.993 C 333.600 129.567,328.591 124.400,328.179 124.400 C 327.872 124.400,326.800 123.327,326.800 123.020 C 326.800 122.710,322.490 118.400,322.180 118.400 C 321.873 118.400,320.800 117.328,320.800 117.021 C 320.800 116.713,315.687 111.600,315.379 111.600 C 315.063 111.600,314.000 110.523,314.000 110.202 C 314.000 109.870,309.730 105.600,309.398 105.600 C 309.076 105.600,308.000 104.537,308.000 104.220 C 308.000 103.910,303.690 99.600,303.380 99.600 C 303.073 99.600,302.000 98.528,302.000 98.221 C 302.000 97.913,296.887 92.800,296.579 92.800 C 296.272 92.800,295.200 91.727,295.200 91.420 C 295.200 91.007,290.836 86.800,290.409 86.800 C 290.184 86.800,290.000 86.596,290.000 86.346 C 290.000 85.904,284.995 80.800,284.562 80.800 C 284.100 80.800,283.200 79.629,283.200 79.029 C 283.200 78.683,283.024 78.400,282.809 78.400 C 282.299 78.400,278.000 74.101,278.000 73.591 C 278.000 73.376,277.640 73.200,277.200 73.200 C 276.667 73.200,276.400 72.933,276.400 72.400 C 276.400 71.960,276.225 71.600,276.011 71.600 C 275.796 71.600,274.811 70.790,273.821 69.800 C 272.831 68.810,271.836 68.000,271.611 68.000 C 271.385 68.000,271.200 67.640,271.200 67.200 C 271.200 66.760,270.997 66.400,270.749 66.400 C 270.500 66.400,269.361 65.410,268.217 64.200 C 267.073 62.990,266.003 62.000,265.840 62.000 C 265.313 62.000,264.400 60.876,264.400 60.229 C 264.400 59.883,264.224 59.600,264.009 59.600 C 263.793 59.600,262.627 58.610,261.417 57.400 C 260.207 56.190,259.111 55.200,258.980 55.200 C 258.672 55.200,257.600 54.128,257.600 53.820 C 257.600 53.517,253.293 49.200,252.991 49.200 C 252.694 49.200,250.800 47.304,250.800 47.008 C 250.800 46.709,247.291 43.200,246.992 43.200 C 246.694 43.200,244.800 41.306,244.800 41.008 C 244.800 40.665,241.270 37.201,240.911 37.191 C 240.740 37.187,240.060 36.538,239.400 35.749 C 237.637 33.642,234.489 30.400,234.208 30.400 C 233.899 30.400,232.000 28.514,232.000 28.208 C 232.000 27.909,228.491 24.400,228.192 24.400 C 227.905 24.400,226.000 22.511,226.000 22.225 C 226.000 21.899,222.574 18.400,222.255 18.400 C 221.923 18.400,219.200 15.729,219.200 15.403 C 219.200 15.108,215.688 11.600,215.392 11.600 C 215.094 11.600,213.200 9.706,213.200 9.408 C 213.200 9.112,209.692 5.600,209.397 5.600 C 209.088 5.600,206.400 2.886,206.400 2.574 C 206.400 1.051,203.806 0.000,200.050 0.000 L 196.185 0.000 192.965 3.300 M203.800 15.992 C 205.560 17.742,225.940 38.125,249.088 61.287 C 272.237 84.449,312.197 124.401,337.888 150.068 C 363.580 175.736,385.218 197.378,385.973 198.163 L 387.345 199.588 386.249 200.771 C 384.895 202.232,383.119 204.022,380.561 206.502 C 379.483 207.549,378.049 208.989,377.376 209.702 C 376.045 211.113,374.537 212.608,372.483 214.553 C 371.758 215.239,370.228 216.775,369.083 217.967 C 367.937 219.160,366.370 220.740,365.600 221.479 C 364.830 222.218,363.840 223.207,363.400 223.676 C 362.960 224.145,362.004 225.085,361.276 225.765 C 360.548 226.444,358.028 228.953,355.676 231.339 C 353.324 233.726,350.797 236.246,350.061 236.939 C 349.325 237.633,346.805 240.162,344.461 242.560 C 342.117 244.957,339.600 247.477,338.867 248.160 C 338.134 248.842,335.704 251.270,333.467 253.554 C 331.230 255.839,328.230 258.841,326.800 260.224 C 325.370 261.608,296.533 290.373,262.718 324.146 C 228.903 357.920,200.893 385.736,200.473 385.961 C 199.803 386.320,191.932 378.612,136.470 323.285 C 101.688 288.588,72.729 259.731,72.115 259.158 C 71.502 258.586,68.986 256.066,66.524 253.558 C 64.063 251.051,61.543 248.530,60.924 247.955 C 60.306 247.380,57.867 244.950,55.504 242.555 C 53.141 240.160,50.621 237.643,49.904 236.963 C 49.187 236.282,46.620 233.713,44.200 231.253 C 38.344 225.301,36.960 223.898,36.330 223.281 C 18.545 205.854,12.800 200.114,12.800 199.774 C 12.800 199.544,13.429 198.646,14.198 197.778 C 14.966 196.910,15.749 196.020,15.938 195.800 C 16.127 195.580,17.564 194.249,19.132 192.842 C 20.700 191.435,22.089 189.950,22.218 189.542 C 22.348 189.134,22.651 188.800,22.891 188.800 C 23.131 188.800,29.079 182.995,36.108 175.900 C 43.137 168.805,49.003 162.890,49.144 162.756 C 51.338 160.667,119.751 92.464,154.107 58.115 C 179.018 33.209,199.670 12.826,200.000 12.820 C 200.330 12.814,202.040 14.241,203.800 15.992 M196.778 59.946 C 195.800 60.576,193.020 63.112,190.600 65.583 C 188.180 68.053,183.886 72.352,181.058 75.137 C 178.229 77.922,171.119 85.021,165.258 90.914 C 159.396 96.807,145.538 110.667,134.463 121.714 C 123.388 132.761,113.398 142.758,112.263 143.929 C 111.128 145.100,109.606 146.630,108.880 147.329 C 108.154 148.028,106.222 149.950,104.586 151.600 C 102.950 153.250,101.474 154.733,101.306 154.895 C 94.812 161.153,60.722 195.358,60.138 196.200 C 59.146 197.633,58.787 199.721,59.248 201.389 C 59.577 202.582,193.505 336.574,196.778 338.985 C 199.548 341.026,204.099 339.521,207.064 335.584 C 207.402 335.135,230.424 312.102,232.925 309.710 C 233.103 309.540,235.533 307.105,238.325 304.299 C 259.429 283.089,325.543 217.144,332.718 210.147 C 342.384 200.721,343.064 198.949,338.642 194.721 C 334.491 190.752,331.600 187.867,331.600 187.694 C 331.600 187.305,325.616 181.600,325.208 181.600 C 324.984 181.600,324.800 181.399,324.800 181.154 C 324.800 180.909,324.125 180.115,323.300 179.390 C 322.475 178.664,295.378 151.675,263.085 119.413 C 230.792 87.152,203.722 60.316,202.929 59.778 C 200.968 58.447,199.022 58.500,196.778 59.946 M207.690 138.100 C 211.600 142.115,216.065 146.705,217.611 148.300 C 219.157 149.895,220.554 151.200,220.716 151.200 C 220.877 151.200,221.457 151.762,222.004 152.449 C 222.552 153.136,223.405 154.081,223.901 154.549 C 224.397 155.017,234.724 165.252,246.852 177.293 L 268.901 199.186 268.197 200.261 C 267.371 201.521,201.315 267.510,200.376 268.013 C 199.877 268.280,193.204 261.814,169.370 237.966 C 152.666 221.252,137.541 206.135,135.758 204.370 C 130.663 199.330,130.663 199.727,135.746 194.851 C 137.036 193.613,138.566 192.075,139.146 191.433 C 139.726 190.791,140.643 189.891,141.184 189.433 C 141.725 188.975,142.625 188.061,143.184 187.402 C 144.206 186.197,178.805 151.579,180.234 150.332 C 180.656 149.965,185.140 145.429,190.200 140.254 C 195.260 135.078,199.665 130.834,199.990 130.822 C 200.314 130.810,203.779 134.085,207.690 138.100 M198.671 176.729 C 197.450 176.869,193.541 180.452,183.427 190.704 C 174.825 199.423,174.790 199.685,181.358 206.230 C 183.361 208.226,186.032 210.926,187.294 212.230 C 200.152 225.517,200.428 225.531,211.532 213.437 C 212.119 212.797,214.778 210.090,217.441 207.421 C 224.599 200.245,224.959 198.672,220.389 194.543 C 217.706 192.118,212.000 186.349,212.000 186.060 C 212.000 185.904,211.616 185.512,211.147 185.188 C 210.678 184.865,208.529 182.866,206.372 180.747 C 202.311 176.758,201.611 176.392,198.671 176.729 " stroke="none" fill="#040404" fill-rule="evenodd"></path></g></svg>