<svg id="svg" version="1.1" xmlns="http://www.w3.org/2000/svg" xmlns:xlink="http://www.w3.org/1999/xlink" width="400" height="400" viewBox="0, 0, 400,400"><g id="svgg"><path id="path0" d="M187.351 38.877 C 166.274 59.625,63.454 162.408,56.311 169.870 C 50.497 175.945,46.968 180.114,46.667 181.266 C 46.477 181.992,109.333 245.360,137.053 272.388 C 140.544 275.792,153.030 288.122,164.800 299.789 C 201.042 335.715,204.715 339.295,205.171 339.143 C 206.498 338.701,231.740 313.825,289.185 256.349 C 362.405 183.088,363.200 182.268,363.200 179.917 C 363.200 179.108,206.139 21.600,205.332 21.600 C 205.096 21.600,197.005 29.375,187.351 38.877 M224.379 77.700 C 291.953 144.814,325.768 179.272,325.720 180.968 C 325.672 182.638,321.668 186.772,272.219 236.208 C 206.082 302.327,206.521 301.921,203.276 299.959 C 198.321 296.963,84.519 183.180,84.633 181.336 C 84.652 181.041,84.697 180.334,84.733 179.763 C 84.801 178.718,162.949 99.929,191.664 71.957 C 203.474 60.453,203.536 60.400,205.244 60.400 L 206.961 60.400 224.379 77.700 M185.761 141.309 C 166.029 161.198,147.875 179.809,147.691 180.338 C 147.322 181.406,195.483 230.826,202.888 236.976 L 205.176 238.876 208.888 235.544 C 216.923 228.330,258.990 185.808,262.537 181.314 L 263.274 180.380 234.362 151.390 C 218.461 135.445,205.242 122.400,204.987 122.400 C 204.731 122.400,196.080 130.909,185.761 141.309 M207.926 162.707 C 211.854 165.659,223.491 177.456,224.611 179.621 C 225.657 181.645,224.884 182.751,216.618 191.046 C 209.515 198.175,206.747 200.400,204.984 200.400 C 201.962 200.400,184.734 182.713,185.353 180.246 C 185.677 178.953,191.174 172.835,197.030 167.250 C 204.142 160.465,204.656 160.251,207.926 162.707 M38.797 220.700 C 38.795 220.865,38.153 221.675,37.371 222.500 C 36.589 223.325,36.079 224.000,36.237 224.000 C 36.542 224.000,39.600 220.893,39.600 220.583 C 39.600 220.482,39.420 220.400,39.200 220.400 C 38.980 220.400,38.798 220.535,38.797 220.700 " stroke="none" fill="#040404" fill-rule="evenodd"></path><path id="path1" d="M199.400 14.448 C 155.913 57.780,109.312 104.068,99.719 113.460 C 81.337 131.456,40.800 172.025,40.800 172.424 C 40.800 172.616,40.215 173.374,39.500 174.108 C 38.281 175.360,37.210 176.647,35.163 179.325 C 34.068 180.757,34.327 182.800,35.774 184.141 C 36.338 184.664,36.800 185.252,36.800 185.448 C 36.800 185.729,39.905 188.988,43.997 193.000 C 45.109 194.091,52.369 201.709,53.539 203.013 C 54.555 204.146,54.750 204.583,54.350 204.831 C 54.060 205.010,53.941 205.274,54.085 205.418 C 54.229 205.562,53.536 206.427,52.546 207.340 C 50.389 209.329,46.688 212.974,44.924 214.846 C 44.222 215.591,42.737 217.099,41.624 218.198 C 40.511 219.297,39.600 220.338,39.600 220.511 C 39.600 220.683,38.487 221.941,37.127 223.305 C 34.400 226.041,33.576 229.082,35.300 230.048 C 35.685 230.263,36.000 230.619,36.000 230.838 C 36.000 231.057,38.835 234.096,42.300 237.591 C 45.765 241.087,49.727 245.174,51.104 246.673 C 61.448 257.938,139.973 336.491,163.591 359.200 C 166.451 361.950,175.706 371.040,184.158 379.400 C 207.381 402.370,204.604 400.380,208.057 396.532 C 208.418 396.129,212.262 392.380,216.600 388.200 C 220.938 384.020,242.463 362.690,264.433 340.800 C 286.403 318.910,312.349 293.134,322.090 283.520 C 331.830 273.907,341.330 264.485,343.200 262.583 C 345.070 260.680,347.478 258.286,348.552 257.262 C 352.875 253.139,355.200 250.603,355.200 250.013 C 355.200 249.671,356.483 248.223,358.051 246.796 C 359.619 245.368,364.209 240.938,368.251 236.952 L 375.600 229.703 375.600 227.639 C 375.600 226.173,375.426 225.508,375.000 225.345 C 374.670 225.218,374.400 224.942,374.400 224.730 C 374.400 224.310,371.327 220.974,368.249 218.052 C 367.176 217.033,365.466 215.334,364.449 214.276 C 362.691 212.447,360.998 210.768,356.983 206.868 C 354.525 204.482,354.558 204.398,360.300 198.509 C 372.443 186.055,375.600 182.688,375.600 182.193 C 375.600 181.904,375.825 181.591,376.100 181.499 C 376.375 181.406,338.231 142.961,291.337 96.065 C 206.928 11.655,206.058 10.800,204.537 10.830 C 203.152 10.858,202.644 11.215,199.400 14.448 M284.480 100.373 C 334.716 150.643,363.200 179.425,363.200 179.917 C 363.200 182.268,362.405 183.088,289.185 256.349 C 231.740 313.825,206.498 338.701,205.171 339.143 C 204.715 339.295,201.042 335.715,164.800 299.789 C 153.030 288.122,140.544 275.792,137.053 272.388 C 109.333 245.360,46.477 181.992,46.667 181.266 C 47.325 178.751,51.480 174.476,115.578 110.377 C 175.225 50.729,204.674 21.600,205.332 21.600 C 205.568 21.600,241.185 57.048,284.480 100.373 M191.664 71.957 C 162.949 99.929,84.801 178.718,84.733 179.763 C 84.697 180.334,84.652 181.041,84.633 181.336 C 84.519 183.180,198.321 296.963,203.276 299.959 C 206.521 301.921,206.082 302.327,272.219 236.208 C 321.668 186.772,325.672 182.638,325.720 180.968 C 325.768 179.272,291.953 144.814,224.379 77.700 L 206.961 60.400 205.244 60.400 C 203.536 60.400,203.474 60.453,191.664 71.957 M234.362 151.390 L 263.274 180.380 262.537 181.314 C 258.990 185.808,216.923 228.330,208.888 235.544 L 205.176 238.876 202.888 236.976 C 195.483 230.826,147.322 181.406,147.691 180.338 C 148.073 179.235,204.278 122.400,204.987 122.400 C 205.242 122.400,218.461 135.445,234.362 151.390 M203.000 161.951 C 199.600 164.071,185.830 178.346,185.353 180.246 C 184.734 182.713,201.962 200.400,204.984 200.400 C 207.221 200.400,223.399 185.455,224.750 182.141 C 225.482 180.345,224.794 179.229,219.679 173.909 C 208.199 161.968,205.768 160.226,203.000 161.951 " stroke="none" fill="#fbfbfb" fill-rule="evenodd"></path></g></svg>