<?xml version="1.0" standalone="no"?>
<!DOCTYPE svg PUBLIC "-//W3C//DTD SVG 20010904//EN"
 "http://www.w3.org/TR/2001/REC-SVG-20010904/DTD/svg10.dtd">
<svg version="1.0" xmlns="http://www.w3.org/2000/svg"
 width="512.000000pt" height="512.000000pt" viewBox="0 0 512.000000 512.000000"
 preserveAspectRatio="xMidYMid meet">

<g transform="translate(0.000000,512.000000) scale(0.100000,-0.100000)"
fill="#000000" stroke="none">
<path d="M1457 3972 c-866 -866 -1077 -1082 -1077 -1102 0 -20 33 -60 135
-163 74 -75 135 -141 135 -145 0 -4 -61 -68 -135 -142 -102 -102 -135 -141
-135 -160 0 -20 220 -245 1083 -1108 627 -627 1090 -1082 1100 -1082 10 0 474
455 1102 1082 866 864 1085 1087 1085 1108 0 19 -34 58 -137 162 l-136 136 41
49 c22 26 84 91 136 143 72 71 96 101 96 120 0 21 -203 229 -1080 1103 -913
910 -1085 1077 -1108 1077 -22 -1 -207 -181 -1105 -1078z m2120 -69 c552 -555
1010 -1015 1018 -1024 13 -13 -100 -129 -1000 -1030 -559 -558 -1022 -1014
-1030 -1014 -11 0 -1936 1911 -2033 2018 -15 17 43 77 1004 1037 560 560 1023
1019 1028 1019 4 1 460 -452 1013 -1006z"/>
<path d="M2537 4399 c-28 -17 -1493 -1482 -1506 -1507 -7 -12 -10 -30 -7 -40
3 -9 345 -356 759 -769 643 -644 756 -753 781 -753 24 0 138 109 782 753 415
413 757 760 760 769 3 10 1 26 -5 36 -12 22 -1452 1466 -1495 1499 -33 26 -43
27 -69 12z m451 -1202 c174 -174 319 -322 321 -328 4 -13 -728 -749 -744 -749
-17 0 -748 737 -743 750 2 6 170 178 373 381 l369 370 53 -53 c30 -29 197
-196 371 -371z"/>
<path d="M2426 3004 c-74 -74 -116 -123 -116 -136 0 -14 42 -63 113 -136 91
-91 120 -114 142 -114 21 0 51 23 141 113 73 73 114 121 114 135 0 29 -227
254 -257 254 -14 0 -60 -39 -137 -116z"/>
</g>
</svg>
